<svg width="6090" height="5024" viewBox="0 0 6090 5024" fill="none" xmlns="http://www.w3.org/2000/svg">
<g clip-path="url(#clip0_1048_4911)">
<path fill-rule="evenodd" clip-rule="evenodd" d="M1917.11 2093.42C1655.79 2048.43 1349.98 2044.36 975.489 2061.91C609.012 1938.57 203.742 1516.06 14.5926 859.107C-93.7355 1291.86 390.89 2955.6 1815.42 3103.44C2550.71 3179.74 2854.56 3137.89 3030.05 3113.71C3194.56 3091.05 3246.27 3083.93 3434.85 3204.23C3580.92 3297.41 3704.98 3410.98 3816.45 3513.03C4002.38 3683.24 4153.28 3821.38 4312.92 3779.38C4063.06 3617.44 4086.19 3469.36 4086.19 3469.36C4086.19 3469.36 4256.05 3434.78 4546.59 3504.08C4546.59 3504.08 4469.66 3063.11 3858.18 2969.05C3845.96 2967.16 3833.74 2965.14 3821.6 2962.93C3758.76 2851.92 3702.77 2665.24 3702.77 2665.24C3653.48 2703.8 3637.85 2806.13 3636.75 2918.41C3297.41 2816.54 2986.99 2616.59 2727.04 2449.15C2614.29 2376.53 2511.04 2310.02 2419.05 2260.28C2330.77 2099.26 1979.47 1385.8 2437.79 976.605C2867.03 593.396 1201.57 0 1201.57 0C1201.57 0 1386.99 284.329 904.883 445.041C1251.02 679.919 1430.28 1094.06 1121.21 1242.41C1434.4 1361.92 1603.35 1613.29 1628.06 1996.52C1708.92 2035.96 1764.61 2033.14 1806.78 2031C1855.7 2028.52 1886.42 2026.96 1917.11 2093.42Z" fill="#5D9BFF"/>
<path d="M6082.52 4535.44C6082.52 4805.25 5863.79 5024 5593.99 5024C5324.18 5024 5105.43 4805.25 5105.43 4535.44C5105.43 4531.65 5105.47 4527.85 5105.57 4524.08C5049.18 4575.07 4974.39 4606.12 4892.38 4606.12C4716.7 4606.12 4574.28 4463.72 4574.28 4288.04C4574.28 4229.77 4589.94 4175.15 4617.31 4128.19C4572 3862.71 4312.76 3602.38 4312.76 3602.38C4312.76 3602.38 4311.36 3601.12 4308.92 3598.93L4345.22 3587.34C4351.76 3592.09 4358.6 3597.12 4365.77 3602.38C4590.25 3767.37 4904.29 3748.15 5039.38 3730.02C5086.69 3613.71 5200.86 3531.7 5334.16 3531.7C5508.74 3531.7 5650.49 3672.35 5652.23 3846.52C5683.09 3830.64 5718.07 3821.69 5755.14 3821.69C5879.5 3821.69 5980.34 3922.52 5980.34 4046.88C5980.34 4098.59 5962.91 4146.25 5933.58 4184.25C6025.41 4273.08 6082.52 4397.58 6082.52 4535.44Z" fill="#FFC85D"/>
<path d="M3853.52 3173.88C3853.52 3173.88 4076.16 3084.01 4217.11 3292.36" stroke="#FFC85D" stroke-width="46.5427" stroke-miterlimit="10"/>
<path d="M2028.17 1299.71C2046.46 1482.57 1979.39 1860.48 1979.39 1860.48C1979.39 1860.48 1786.77 1932.22 1624.53 1944.93C1592.65 1457.46 1577.64 1421.44 1202.85 1276.51C1461.91 1233.92 2014.18 1159.87 2028.17 1299.71Z" fill="#FFC85D"/>
<path d="M2107.41 1001.04C2136.68 1186.56 1438.68 1218.46 1159.66 1223.82C1386.44 1077.95 1269.08 753.503 1006.42 525.863C1348.11 614.387 2079.41 823.783 2107.41 1001.04Z" fill="#FFC85D"/>
<path d="M2192.74 714.567C1949.26 821.708 1227.15 547.525 946.68 432.961C1237.52 322.701 1251.25 164.409 1229.87 73.7676C1453.3 165.829 2464.32 595.092 2192.74 714.567Z" fill="#FFC85D"/>
<path d="M1979.39 1860.48C1979.39 1860.48 1786.78 1932.22 1624.53 1944.93C1531.83 1490 1500.83 1496.5 1202.85 1276.51C1461.91 1233.92 2014.18 1159.87 2028.17 1299.71C2046.46 1482.57 1979.39 1860.48 1979.39 1860.48Z" fill="#FFC85D"/>
<path d="M1159.66 1223.82C1386.44 1077.95 1269.08 753.503 1006.42 525.863C1348.11 614.387 2079.41 823.783 2107.41 1001.04C2136.68 1186.56 1438.68 1218.46 1159.66 1223.82Z" fill="#FFC85D"/>
<path d="M2192.74 714.567C1949.26 821.708 1227.15 547.525 946.68 432.961C1237.52 322.701 1251.25 164.409 1229.87 73.7676C1453.3 165.829 2464.32 595.092 2192.74 714.567Z" fill="#FFC85D"/>
</g>
<defs>
<clipPath id="clip0_1048_4911">
<rect width="6082.52" height="5024" fill="white"/>
</clipPath>
</defs>
</svg>
